<?xml version="1.0" standalone="no"?>
<!DOCTYPE svg PUBLIC "-//W3C//DTD SVG 20010904//EN"
 "http://www.w3.org/TR/2001/REC-SVG-20010904/DTD/svg10.dtd">
<svg version="1.0" xmlns="http://www.w3.org/2000/svg"
 width="500.000000pt" height="500.000000pt" viewBox="0 0 500.000000 500.000000"
 preserveAspectRatio="xMidYMid meet">

<g transform="translate(0.000000,500.000000) scale(0.100000,-0.100000)"
fill="#000000" stroke="none">
<path d="M1015 3310 c-105 -57 -175 -165 -225 -351 -17 -62 -39 -132 -49 -154
-23 -52 -71 -92 -119 -100 -20 -4 -44 -9 -52 -12 -24 -8 17 -21 70 -22 100 -2
156 65 217 259 43 140 72 198 126 257 49 54 84 73 132 73 72 0 158 -58 198
-134 27 -51 28 -144 3 -210 -19 -50 -26 -55 -47 -30 -17 21 -63 44 -88 44 -32
0 -88 -56 -153 -153 -77 -114 -125 -161 -201 -199 -50 -24 -55 -28 -27 -23 98
19 174 78 286 222 36 46 74 88 85 93 31 17 84 -15 174 -105 l80 -80 -48 68
-48 67 31 64 c77 157 37 308 -106 403 -50 33 -65 38 -128 41 -58 3 -78 -1
-111 -18z"/>
<path d="M560 2871 c-51 -16 -109 -51 -128 -78 -68 -98 -51 -205 47 -304 77
-77 145 -102 259 -97 l83 4 56 -83 c31 -46 60 -83 63 -83 4 0 31 39 60 88 63
104 178 221 270 275 77 46 43 39 -50 -9 -90 -47 -177 -121 -234 -199 -27 -36
-50 -65 -51 -65 -1 0 -10 11 -19 25 -15 24 -15 27 7 62 74 117 156 192 272
253 74 38 33 30 -52 -11 -83 -40 -152 -96 -220 -179 l-56 -68 -61 45 c-33 25
-83 56 -111 69 -30 15 -40 17 -26 7 14 -10 43 -33 65 -52 l41 -34 -65 5 c-75
5 -129 28 -176 75 -106 106 -95 237 27 311 30 18 68 37 84 41 28 9 27 9 -15 9
-25 0 -56 -3 -70 -7z"/>
<path d="M1222 2469 c-48 -24 -72 -61 -72 -112 0 -34 15 -57 37 -57 9 0 13 15
13 44 0 52 21 82 67 95 17 5 33 7 36 5 2 -2 -14 -84 -35 -181 -21 -98 -38
-179 -38 -180 0 -2 18 -3 39 -3 l39 0 15 68 c8 37 25 115 38 175 21 103 23
107 48 107 51 0 52 -5 16 -170 -19 -85 -34 -161 -35 -167 0 -8 14 -13 39 -13
l38 0 18 87 c19 96 38 143 59 143 24 0 26 -28 9 -105 -15 -69 -15 -76 1 -100
20 -31 72 -34 107 -6 24 19 25 19 48 0 13 -11 39 -19 61 -19 62 0 110 50 125
133 5 27 12 37 26 37 23 0 24 -15 4 -95 -8 -33 -14 -63 -15 -67 0 -5 18 -8 39
-8 l40 0 11 58 c20 103 40 160 57 166 31 12 33 -10 13 -108 -11 -54 -20 -102
-20 -107 0 -5 17 -9 38 -9 l37 0 22 101 c23 102 35 129 58 129 22 0 23 -23 8
-103 -14 -70 -14 -79 1 -102 20 -31 73 -34 106 -7 23 18 24 18 42 0 25 -25 76
-23 105 4 l23 22 16 -22 c18 -26 53 -28 95 -7 27 14 31 14 45 0 9 -9 33 -15
59 -15 35 0 54 8 106 47 36 26 58 48 51 51 -7 2 -21 -3 -31 -13 -18 -15 -19
-12 -26 94 -7 105 -8 111 -29 111 -50 0 -63 -11 -80 -65 -9 -29 -28 -70 -42
-91 -14 -21 -30 -48 -35 -61 -5 -14 -17 -23 -29 -23 -25 0 -25 19 0 130 11 47
20 88 20 93 0 4 -18 7 -40 7 -24 0 -40 -5 -40 -12 0 -9 -3 -9 -12 0 -28 28
-101 3 -137 -46 -11 -16 -26 -51 -32 -78 -18 -79 -27 -94 -50 -94 -20 0 -21 3
-15 48 19 135 19 142 1 162 -10 11 -27 20 -37 20 -22 0 -60 -18 -69 -33 -4 -5
-16 0 -28 12 -25 25 -58 27 -89 5 -20 -14 -22 -14 -22 0 0 12 -10 16 -35 16
-31 0 -35 -3 -45 -39 -14 -53 -60 -73 -60 -26 0 34 -33 65 -70 65 -71 0 -126
-60 -145 -159 -12 -58 -35 -85 -56 -64 -10 10 -10 24 -1 64 24 104 10 159 -41
159 -13 0 -33 -7 -45 -16 -25 -18 -25 -17 -9 56 21 88 25 85 -131 88 -123 2
-141 0 -180 -19z m631 -154 c4 -8 2 -17 -4 -21 -6 -3 -7 -24 -4 -47 8 -57 -19
-112 -55 -112 -20 0 -26 6 -28 27 -9 79 69 211 91 153z m663 -32 c-21 -119
-51 -170 -86 -148 -15 9 -12 66 5 115 20 56 32 70 62 70 24 0 25 -2 19 -37z
m213 -88 c1 -56 -11 -75 -45 -75 -33 0 -40 19 -14 37 13 9 19 21 15 31 -3 8 2
35 12 59 16 38 19 40 25 20 3 -12 6 -45 7 -72z"/>
<path d="M3760 2460 c-35 -5 -35 -5 -54 -90 -10 -47 -24 -88 -30 -92 -21 -15
-34 -8 -41 21 -16 74 -102 82 -163 16 -42 -46 -72 -50 -83 -12 -12 44 -28 57
-71 57 -60 0 -114 -55 -137 -140 -16 -56 -22 -66 -54 -83 -41 -21 -73 -16 -82
14 -10 30 14 127 39 156 25 29 51 24 43 -9 -7 -23 21 -37 34 -17 24 38 -4 79
-52 79 -73 0 -136 -74 -146 -172 -4 -45 -2 -57 18 -82 20 -26 26 -28 75 -24
37 3 63 12 88 32 26 20 36 23 36 12 0 -23 41 -46 82 -46 52 0 94 40 118 110
11 32 25 56 35 58 12 3 15 -2 11 -20 -22 -100 2 -148 74 -148 56 0 107 47 125
115 9 38 17 51 34 53 25 4 25 5 6 -73 -22 -92 -21 -97 22 -93 l38 3 15 68 c9
43 21 72 33 78 30 17 40 0 33 -55 -8 -69 10 -96 63 -96 25 0 44 7 56 20 l18
20 19 -20 c20 -22 67 -26 99 -10 13 7 19 7 19 0 0 -5 18 -10 39 -10 l40 0 11
58 c20 103 40 160 57 166 32 12 37 -10 20 -91 -12 -61 -13 -83 -4 -103 16 -34
69 -39 107 -11 28 20 28 20 45 0 20 -21 65 -25 96 -9 13 7 19 7 19 0 0 -5 -15
-16 -34 -24 -92 -39 -76 -139 20 -122 40 8 70 43 79 94 5 29 13 40 38 52 33
16 75 76 62 88 -4 4 -12 -2 -19 -12 -16 -28 -56 -69 -62 -63 -3 2 7 57 21 121
14 65 25 122 25 127 0 13 -64 11 -77 -2 -8 -8 -13 -8 -17 0 -4 6 -18 11 -32
11 -65 0 -120 -63 -139 -159 -12 -57 -35 -85 -56 -64 -8 8 -7 30 6 85 12 54
13 81 6 101 -13 35 -55 46 -93 24 -24 -14 -28 -14 -28 -2 0 10 -11 15 -34 15
-39 0 -38 2 -61 -110 -18 -85 -37 -120 -65 -120 -25 0 -25 19 0 134 11 50 20
91 20 93 0 2 -18 3 -39 3 -39 0 -39 0 -50 -50 -6 -27 -16 -72 -22 -99 -11 -52
-39 -87 -62 -78 -10 4 -13 19 -9 59 5 60 -11 88 -51 88 -16 0 -8 9 33 38 46
32 50 37 31 40 -14 2 -41 -11 -74 -37 -28 -22 -53 -38 -55 -36 -2 2 4 40 13
84 9 45 15 85 13 89 -2 4 -19 5 -38 2z m-414 -141 c3 -6 1 -22 -7 -35 -9 -18
-10 -27 -2 -35 23 -23 -23 -119 -56 -119 -45 0 -27 132 25 184 18 19 30 20 40
5z m236 -20 c-1 -13 -2 -31 -2 -39 3 -77 -19 -125 -56 -125 -39 0 -27 113 17
169 25 32 45 29 41 -5z m968 4 c0 -31 -30 -146 -42 -160 -16 -20 -46 -16 -53
8 -9 28 2 84 26 131 15 29 26 38 44 38 17 0 25 -5 25 -17z m-58 -279 c-5 -27
-28 -42 -42 -28 -11 11 -2 27 25 42 11 6 21 12 21 12 1 0 -1 -12 -4 -26z"/>
<path d="M4012 2458 c-28 -28 -3 -72 39 -66 30 4 47 33 33 56 -14 21 -55 27
-72 10z"/>
<path d="M2113 1912 c-12 -8 -6 -62 8 -62 13 0 23 50 13 60 -5 5 -14 6 -21 2z"/>
<path d="M2930 1840 c0 -61 3 -80 14 -80 7 0 16 10 19 22 l6 22 24 -22 c13
-12 31 -22 41 -22 15 0 13 5 -8 33 l-25 33 22 22 c20 21 20 22 2 22 -10 0 -29
-10 -42 -22 l-23 -21 0 46 c0 35 -4 47 -15 47 -12 0 -15 -16 -15 -80z"/>
<path d="M3950 1840 c0 -64 3 -80 15 -80 10 0 15 10 15 34 0 35 21 63 40 51 5
-3 10 -24 10 -46 0 -29 4 -39 16 -39 12 0 14 10 12 53 l-3 52 -37 3 c-33 3
-38 7 -38 28 0 15 -6 24 -15 24 -12 0 -15 -16 -15 -80z"/>
<path d="M1667 1903 c-4 -3 -7 -37 -7 -75 l0 -68 55 0 c42 0 55 3 55 15 0 10
-11 15 -35 15 l-35 0 0 60 c0 43 -4 60 -13 60 -8 0 -17 -3 -20 -7z"/>
<path d="M1990 1886 c0 -8 -6 -16 -12 -19 -10 -4 -10 -7 0 -18 6 -7 12 -25 12
-39 0 -14 5 -31 12 -38 17 -17 48 -15 48 3 0 8 -6 14 -12 13 -19 -4 -22 44 -4
54 20 11 21 28 1 28 -8 0 -15 7 -15 15 0 8 -7 15 -15 15 -8 0 -15 -6 -15 -14z"/>
<path d="M3190 1881 c-10 -20 -4 -72 12 -103 5 -10 20 -18 33 -18 28 0 34 15
10 24 -17 6 -21 56 -5 56 15 0 12 17 -7 40 -22 25 -30 25 -43 1z"/>
<path d="M3830 1886 c0 -8 -6 -16 -12 -19 -10 -4 -10 -7 0 -18 6 -7 12 -25 12
-39 0 -14 5 -31 12 -38 16 -16 61 -16 56 1 -3 6 -11 12 -19 12 -8 0 -15 12
-17 28 -2 19 1 27 12 27 9 0 16 7 16 15 0 8 -7 15 -15 15 -8 0 -15 7 -15 15 0
8 -7 15 -15 15 -8 0 -15 -6 -15 -14z"/>
<path d="M1823 1844 c-15 -24 -15 -29 -2 -53 12 -21 22 -26 52 -26 36 0 53 19
19 21 -9 1 -23 2 -29 3 -7 1 -13 6 -13 11 0 6 18 10 40 10 44 0 52 16 24 44
-25 25 -71 20 -91 -10z m72 -4 c4 -6 -5 -10 -20 -10 -15 0 -24 4 -20 10 3 6
12 10 20 10 8 0 17 -4 20 -10z"/>
<path d="M2202 1861 c-23 -14 -9 -44 27 -56 40 -13 27 -29 -15 -19 -20 5 -26
3 -22 -7 2 -8 20 -15 40 -17 63 -5 80 52 18 64 -37 8 -40 27 -3 22 15 -2 28 2
30 10 5 14 -54 17 -75 3z"/>
<path d="M2440 1855 c-19 -22 -15 -67 6 -82 25 -18 79 -13 79 7 0 11 -9 14
-32 12 -29 -3 -33 -1 -33 21 0 28 26 43 45 27 15 -13 30 3 20 20 -10 15 -71
12 -85 -5z"/>
<path d="M2596 1854 c-35 -35 -6 -94 47 -94 32 0 57 24 57 55 0 32 -25 55 -60
55 -16 0 -36 -7 -44 -16z m64 -19 c17 -20 5 -45 -20 -45 -11 0 -23 7 -26 15
-6 15 11 45 26 45 4 0 13 -7 20 -15z"/>
<path d="M2766 1854 c-35 -35 -6 -94 47 -94 32 0 57 24 57 55 0 32 -25 55 -60
55 -16 0 -36 -7 -44 -16z m64 -19 c17 -20 5 -45 -20 -45 -11 0 -23 7 -26 15
-6 15 11 45 26 45 4 0 13 -7 20 -15z"/>
<path d="M3320 1855 c-19 -22 -15 -67 6 -82 29 -22 76 -12 93 18 13 24 13 29
-2 53 -20 30 -76 36 -97 11z m68 -38 c3 -23 0 -27 -22 -27 -21 0 -26 5 -26 24
0 43 43 46 48 3z"/>
<path d="M3484 1845 c-15 -23 -15 -27 0 -50 11 -17 26 -25 46 -25 17 0 30 -4
30 -9 0 -12 -27 -21 -45 -15 -8 3 -19 3 -26 -1 -17 -11 9 -25 47 -25 46 0 64
26 64 92 l0 55 -50 2 c-43 0 -52 -3 -66 -24z m76 -11 c11 -12 10 -18 -3 -31
-8 -9 -23 -13 -31 -10 -19 8 -21 43 -3 50 20 9 24 8 37 -9z"/>
<path d="M3670 1855 c-19 -22 -15 -67 6 -82 23 -17 76 -13 82 5 3 9 -4 13 -19
12 -37 -3 -49 -1 -49 10 0 6 18 10 40 10 32 0 40 4 40 18 0 10 -5 23 -12 30
-17 17 -73 15 -88 -3z m65 -15 c4 -6 -5 -10 -20 -10 -15 0 -24 4 -20 10 3 6
12 10 20 10 8 0 17 -4 20 -10z"/>
<path d="M4136 1854 c-49 -48 25 -122 84 -84 13 8 12 10 -1 15 -9 3 -20 5 -25
4 -19 -3 -34 1 -34 11 0 6 18 10 40 10 44 0 47 5 24 38 -18 26 -65 30 -88 6z
m59 -14 c4 -6 -5 -10 -20 -10 -15 0 -24 4 -20 10 3 6 12 10 20 10 8 0 17 -4
20 -10z"/>
<path d="M4290 1814 c0 -47 2 -54 20 -54 17 0 20 7 20 40 0 29 4 40 15 40 8 0
15 6 15 14 0 9 -12 14 -35 14 l-35 0 0 -54z"/>
</g>
</svg>
